<svg xmlns="http://www.w3.org/2000/svg" viewBox="0 0 6081 539"><defs><style>.cls-1{fill:#f4f4f4;}</style></defs><g id="Layer_2" data-name="Layer 2"><g id="Layer_1-2" data-name="Layer 1"><path id="curves-header" class="cls-1" d="M6081,523c-201.84-233-355.82-236.48-460-194.94-150,59.8-187.12,209-320,181.59C5123,472.9,5103.75,2.64,4944.5,0,4799.86-2.38,4785.69,417.25,4615,480.26,4437.25,545.88,4414.52,302.42,4201,288c-239.82-16.21-271.37,286.86-462,200.28-177.79-80.74-207.8-370.45-359-389.88C3238.25,80.17,3118,316,3038,520.71c-197.42-222.84-348.37-225.58-451-184.66-150,59.8-187.12,209-320,181.59C2089,480.9,2069.75,10.64,1910.5,8,1765.86,5.62,1751.69,425.25,1581,488.26,1403.25,553.88,1380.52,310.42,1167,296,927.18,279.78,895.63,582.85,705,496.27,527.21,415.53,497.2,125.82,346,106.39,201.87,87.86,80,332,0,539l3047-8,0,0Z"/></g></g></svg>